<?xml version="1.0" encoding="UTF-8" standalone="no"?>
<svg
   xmlns:dc="http://purl.org/dc/elements/1.1/"
   xmlns:cc="http://creativecommons.org/ns#"
   xmlns:rdf="http://www.w3.org/1999/02/22-rdf-syntax-ns#"
   xmlns:svg="http://www.w3.org/2000/svg"
   xmlns="http://www.w3.org/2000/svg"
   viewBox="0 0 1066.6667 1066.6667"
   height="1066.6667"
   width="1066.6667"
   xml:space="preserve"
   id="svg2"
   version="1.1"><metadata
     id="metadata8"><rdf:RDF><cc:Work
         rdf:about=""><dc:format>image/svg+xml</dc:format><dc:type
           rdf:resource="http://purl.org/dc/dcmitype/StillImage" /></cc:Work></rdf:RDF></metadata><defs
     id="defs6" /><g
     transform="matrix(1.3333333,0,0,-1.3333333,0,1066.6667)"
     id="g10"><g
       transform="scale(0.1)"
       id="g12"><path
         id="path14"
         style="fill:#412319;fill-opacity:1;fill-rule:nonzero;stroke:none"
         d="M 6879.86,4000 C 6879.86,2409.5 5590.5,1120.14 4000,1120.14 2409.5,1120.14 1120.14,2409.5 1120.14,4000 c 0,1590.5 1289.36,2879.86 2879.86,2879.86 1590.5,0 2879.86,-1289.36 2879.86,-2879.86" /><path
         id="path16"
         style="fill:#ffffff;fill-opacity:1;fill-rule:nonzero;stroke:none"
         d="m 1708.73,3298.19 45.47,21.51 v -487.71 l -45.47,-7.22 z m 67.6,31.98 44.54,21.07 v -506.58 h 13.23 l -57.77,-9.16 z m 66.66,31.54 42.4,20.06 v -528.2 h 4.86 l -47.26,-7.49 z m 64.52,30.52 39.33,18.6 v -548.28 l -39.33,-6.24 z m 63.6,30.08 35.02,16.57 v -566.92 l -35.02,-5.56 z m 62.37,29.51 36.86,17.44 v -587.12 l -36.86,-5.84 z m 137.33,-591.8 v 452.55 h 27.65 v 216.6 h -128.12 l -393.56,-210.15 v -35.94 l 9.83,4.65 V 2812.1 l 484.2,47.92" /><path
         id="path18"
         style="fill:#ffffff;fill-opacity:1;fill-rule:nonzero;stroke:none"
         d="m 1739.46,3361.42 288.48,157.61 v 166.83 l -301.39,-226.74 v -53.46 h 13.83 l -0.92,-44.24" /><path
         id="path20"
         style="fill:#ffffff;fill-opacity:1;fill-rule:nonzero;stroke:none"
         d="m 2198.46,3685.86 h -156.69 v -138.72 h 156.69 v 138.72" /><path
         id="path22"
         style="fill:#ffffff;fill-opacity:1;fill-rule:nonzero;stroke:none"
         d="m 3590.21,3236.99 -5.54,140.1 -897.72,-158.53 V 3109.8 l 116.13,16.36 v 70.28 l 215.68,33.18 v -73.09 l 95.85,13.49 v 78.32 l 248.86,38.28 v -81.55 l 226.74,31.92" /><path
         id="path24"
         style="fill:#ffffff;fill-opacity:1;fill-rule:nonzero;stroke:none"
         d="m 5481.51,3769.12 c 0,179.86 -125.45,325.66 -280.2,325.66 -147.87,0 -268.9,-133.17 -279.37,-301.94 45.34,108.87 141.29,183.96 252.34,183.96 154.75,0 280.19,-145.8 280.19,-325.66 0,-7.99 -0.33,-15.88 -0.82,-23.73 17.85,42.85 27.86,90.92 27.86,141.71" /><path
         id="path26"
         style="fill:#ffffff;fill-opacity:1;fill-rule:nonzero;stroke:none"
         d="m 6117.47,2807.49 c 0,-136.41 -66.36,-152.39 -66.36,-152.39 h -385.26 l 1.27,-0.41 -1088.65,-3.2 h -110.82 l -36.87,-55.99 h -125.04 c -115.93,12.24 -254.69,51.5 -254.69,169.59 0,71.58 0,177.62 0,284.86 l 159.46,17.45 h 1906.96 c 0,0 0,-123.5 0,-259.91 z m -143.88,-633.09 -187.94,-281.91 -1142.12,238.54 3.61,475.53 52.16,-0.83 14.13,-450.19 92.17,-8.83 -5.53,453.09 47.98,-463.34 41.74,-7.17 54.93,-5.49 -43.37,474.68 101.49,-488.59 113.92,-19.56 -75.66,517.79 125.19,-526.29 104.28,-17.9 -99.36,539.37 156.24,-549.14 96.22,-16.52 -136.8,568.07 178.77,-575.27 114.02,-19.57 -162.67,597.25 209.43,-605.28 96.4,-16.55 -180.54,617.01 229.42,-614.17 64.23,82.19 -190.04,541.62 214.82,-509.91 58.98,75.47 -184.19,443.82 21.23,0.25 z M 4051.05,3354.97 h 567.5 c 70.77,-109.53 169.27,-194.98 284.01,-243.33 h -692.05 l -159.46,-18.16 c 0,98.73 0,194.51 0,261.49 z m 1083.9,1032.02 c 169.67,0 321.06,-87.54 420.44,-224.48 8.06,-63.16 35.02,-320.18 -30.07,-510.08 9.17,34.86 14.18,71.73 14.18,109.92 0,214.14 -154.71,387.73 -345.56,387.73 -190.85,0 -345.56,-173.59 -345.56,-387.73 0,-161.06 87.55,-299.16 212.14,-357.73 -145.89,11.37 -304.52,66.68 -438.12,176.76 -18.96,61.95 -29.4,128.35 -29.4,197.52 0,335.84 242.64,608.09 541.95,608.09 z m -254.74,427.16 c -82.01,-48.76 -104.34,-119.66 -104.34,-119.66 v -308.13 l -53.83,-21.12 v 483.04 c 72.54,-7.32 129.85,-24.36 158.17,-34.13 z m -441.44,32.11 c 243.33,159.76 459.62,-4.91 459.62,-4.91 v -17.39 c -0.57,-0.29 -1.15,-0.56 -1.71,-0.85 -205.93,81.84 -457.91,23.15 -457.91,23.15 z m 248.24,-494.76 -68.2,-26.77 v 526.08 c 23.57,1.29 46.4,1.2 68.2,0.1 z m -134.56,-52.8 -38.84,-15.24 -1.72,551.74 c 13.62,3.34 27.15,6.07 40.56,8.32 z m -127.81,1344.51 c 0,0 55.96,22 135.18,31.9 v -169.59 c -43.52,-3.42 -89.13,-9.89 -135.18,-20.84 z M 4677.8,5485 v -545.07 c -22.4,2.39 -46.18,3.37 -71.28,2.67 v 540.85 c 0,0 27.84,2.4 71.28,1.55 z m -75.58,193.91 c 82.46,4.59 181.06,-7.15 267.29,-65.19 v -129.04 c 0,0 -116.11,28.81 -267.29,23.29 z M 4797,5396.2 v -483.41 c -6.91,2.49 -14.01,4.92 -21.48,7.23 h 0.35 V 5478 c 29.25,-3.63 60.49,-8.9 92.41,-16.66 0,0 -24.58,-45.48 -71.28,-65.14 z m 181.03,-633.1 c 41.07,-6.59 123.74,-34.33 123.74,-150.95 0,-82.9 -33.07,-128.31 -68.52,-152.83 -25.19,12.24 -49.81,30.96 -66.93,59.71 2.33,-0.35 4.62,-0.89 7.03,-0.89 33.26,0 60.22,33.84 60.22,75.58 0,41.74 -26.96,75.58 -60.22,75.58 -9.62,0 -18.59,-3.1 -26.65,-8.13 5.43,40.96 17.12,74.71 31.33,101.93 z m 47.57,65.57 c 40.28,-11.71 168.34,-61.16 168.34,-216.52 0,-75.75 -24.29,-124.38 -52.89,-155.43 -0.28,0.01 -0.57,0.01 -0.85,0.02 22.67,48.09 102.53,250.33 -96.54,361.87 l -19.51,8.52 c 0.48,0.48 0.98,1.07 1.45,1.54 z m 176.57,-1396.34 c -166.99,0 -302.36,151.89 -302.36,339.26 0,187.37 135.37,339.26 302.36,339.26 166.99,0 302.36,-151.89 302.36,-339.26 0,-187.37 -135.37,-339.26 -302.36,-339.26 z m 589.02,-77.36 v -243.33 h -453.34 c 114.75,48.35 213.24,133.8 284.02,243.33 z M 3740.24,2162.57 c -88.58,0 -160.4,170.32 -160.4,380.43 0,157.74 40.49,293.05 98.16,350.7 3.51,-19.82 7.06,-38.57 10.63,-56.02 -54.94,-37.4 -95.09,-155.07 -95.09,-294.68 0,-169.7 59.27,-307.26 132.38,-307.26 73.12,0 132.39,137.56 132.39,307.26 0,23.29 -1.21,45.9 -3.33,67.71 14.91,-8.98 29.94,-17.45 44.63,-25.3 0.65,-13.93 1.01,-28.07 1.01,-42.41 0,-210.11 -71.81,-380.43 -160.38,-380.43 z m -26.53,580.4 c 15.43,-38.27 55.91,-75.27 102.87,-107.6 4.04,-28.91 6.35,-59.92 6.35,-92.37 0,-152.14 -48.29,-275.48 -107.85,-275.48 -59.56,0 -107.85,123.34 -107.85,275.48 0,133.61 37.26,244.94 86.68,270.09 6.64,-29.62 13.3,-53.98 19.8,-70.12 z M 3373.76,2210 c -77.54,0 -140.4,149.09 -140.4,333 0,183.9 62.86,332.98 140.4,332.98 77.53,0 140.39,-149.08 140.39,-332.98 0,-183.91 -62.86,-333 -140.39,-333 z m -153.37,493.8 c 10.7,48.77 41.58,152.84 115.61,193.46 -50.96,-34.63 -91.7,-118.88 -109.99,-226.49 -1.63,11.54 -3.51,22.55 -5.62,33.03 z M 3053.02,2279 c -67.94,0 -123.02,130.65 -123.02,291.8 0,161.16 55.08,291.8 123.02,291.8 67.95,0 123.03,-130.64 123.03,-291.8 0,-161.15 -55.08,-291.8 -123.03,-291.8 z m -134.65,417.52 c 10.06,52.8 41.92,173.3 125.56,196.42 -57.32,-17.58 -104.25,-104.51 -121.95,-220.14 -1.06,8.19 -2.27,16.1 -3.61,23.72 z m -247.18,-122.99 c -0.13,4.63 -0.27,9.26 -0.27,13.97 0,106.22 33.71,192.32 75.29,192.32 41.58,0 75.29,-86.1 75.29,-192.32 0,-106.21 -33.71,-192.31 -75.29,-192.31 -30.88,0 -57.4,47.55 -69.01,115.51 h 4.22 z m 92.58,-251.61 c -50.58,0 -93.28,79.57 -107.17,188.78 h 10.96 c 13.33,-80.48 46.85,-137.7 86.22,-137.7 51.04,0 92.42,96.04 92.42,214.5 0,118.47 -41.38,214.51 -92.42,214.51 -50.68,0 -91.79,-94.72 -92.37,-212.04 h -9.56 c 0.56,145.53 50.43,263.11 111.92,263.11 61.84,0 111.97,-118.9 111.97,-265.58 0,-146.67 -50.13,-265.58 -111.97,-265.58 z m 704.38,574.35 0.01,-0.02 c -0.01,0.01 -0.02,0.01 -0.03,0.02 z m 887.06,1457.06 -217.52,-88.78 v 187.23 c 0,0 112.44,33.18 217.52,-71.89 z m 0,-132.03 -438.73,-172.14 v 71.37 l 438.73,160.98 z m -473.75,-185.89 -68.21,-26.76 v 545.38 c 23.58,1.28 46.41,1.19 68.21,0.09 z m -134.57,-52.8 -38.77,-15.21 -1.78,571.02 c 13.62,3.34 27.14,6.06 40.55,8.32 z m 345.94,528.04 v -32.82 c -89.5,-21.04 -143.17,-72.14 -143.17,-72.14 V 4187.8 l -33.18,-13.54 v 377.24 c 97.09,-9.81 166.87,-37 176.35,-40.85 z m 0,33.91 v -18.88 c -206.24,82.83 -459.61,23.8 -459.61,23.8 243.32,159.76 459.61,-4.92 459.61,-4.92 z m -947.8,-781.28 v 21.81 h 70.01 z m -27.65,-3.69 -117.05,-41.47 v 66.97 h 117.05 z m -174.81,-60.52 -208.31,-66.36 v 152.38 h 208.31 z m -245.79,-151.93 h -164.67 v 237.95 h 164.67 z m 3466.78,-737.81 v 302.31 h -302.32 v 335.5 h -70.05 -119.04 c 43.02,94.63 67.43,201.69 67.43,315.21 0,367.61 -254.43,668.35 -576.45,693.11 27.52,30.57 49.24,79.17 49.24,156.69 0,211.99 -148.69,247.01 -148.69,247.01 -62.21,0 -111.51,-11.5 -150.55,-28.35 v 20.37 c 0,0 -34.51,28.71 -96.47,54.06 v 483.59 c 40.56,0 72.51,72.51 72.51,72.51 v 157.29 c 0,0 -58.99,98.32 -258.07,98.32 -199.09,0 -275.28,-76.2 -275.28,-76.2 0,0 0,-127.8 0,-172.04 0,-44.24 58.99,-86.03 58.99,-86.03 v -483.53 c -47.21,-26.62 -57.15,-55.35 -57.15,-55.35 v -442.76 c -24.83,28.44 -87.43,85.76 -188.63,85.76 -21.91,0 -42.34,-2.3 -61.45,-5.9 v 73.49 c 0,0 -122.89,103.23 -324.44,90.94 -201.54,-12.29 -231.03,-98.31 -231.03,-98.31 v -640.84 l -198.14,-77.75 -50.1,-19.66 v 18.1 c 0,0 -203.22,29.21 -339.29,38.93 -207.66,14.83 -518.49,-14.35 -518.49,-14.35 v -722.29 h 44.24 c 0,118.28 24.57,137.33 24.57,137.33 l 142.56,16.59 c 0,191.1 98.31,293.1 98.31,293.1 l 234.99,89.94 1726.14,623.43 c -20.01,-19.29 -38.98,-39.87 -56.64,-61.84 l -1868.85,-680.57 -27.04,-44.27 1813.01,594.24 c -48.75,-99.3 -76.55,-213.37 -76.55,-334.76 0,-12.94 0.38,-25.79 1,-38.56 l -1818.57,-410.6 v -68.82 l 1842.32,323.59 c 10.9,-42.07 25.25,-82.46 42.69,-120.82 h -517.22 l -90.33,-14.81 v -674.61 c 0,0 19.85,-108.46 130.11,-162.22 h -43.47 c 0,0 -33.17,15.18 -76.85,37.14 -24.6,12.37 -52.49,26.88 -79.78,42.1 -18.27,10.2 -36.21,20.7 -52.68,31.06 -18.05,11.37 -34.32,22.57 -47.15,33.01 -13.59,11.07 -23.37,21.29 -27.42,29.97 -2.51,5.39 -5.28,15.7 -8.21,29.71 -2.71,12.92 -5.55,28.96 -8.49,47.59 -3.56,22.49 -7.24,48.73 -10.97,77.06 -1.71,13.09 -3.44,26.54 -5.16,40.45 -22.5,181.62 -44.59,421.8 -44.59,421.8 l -72.25,-10.75 c 0,0 26.67,-256.21 58.53,-447.87 -48.97,-49.89 -86.78,-142.07 -103.47,-254.61 -1.77,10.76 -3.7,21.15 -5.84,31.05 8.39,44.94 31.82,152.69 72.03,207.51 l -9.4,61.32 -1159.91,-32.44 v -77 h 129.03 l 30.73,-182.31 h 12.07 c 0,0 22.88,175.03 108.63,196.89 l 0.14,-0.01 c -61.77,-28.28 -108.17,-145.92 -108.71,-287.2 h -101.85 v 239.64 h -88.48 v 82.95 l -27.65,-1.84 v -99.55 H 2451 V 2510.7 h 191.41 c 15.72,-126.3 69.05,-219.42 132.61,-219.42 h 63.99 c 0,0 60.31,43.05 81.21,189.89 18.07,-136.14 76.2,-235.83 145.17,-235.83 h 70.3 c 0,0 61.97,44.23 86.83,193.03 20.97,-154.17 87.04,-266.79 165.35,-266.79 h 80.22 c 0,0 75.2,53.66 101.61,236.51 26.16,-168.18 99.81,-289.41 186.66,-289.41 h 91.65 c 0,0 126.45,89.96 126.45,424.32 0,1.92 -0.07,3.74 -0.08,5.65 32.5,-14.73 54.55,-23.2 54.55,-23.2 h 538.37 l -12.4,-139.9 -529.66,20.7 -13.52,-76.2 127,-12.91 c 20.95,-37.74 70.62,-108.75 148.28,-108.75 68.01,0 116.04,46.22 141.73,79.24 l 116.45,-11.85 -17.31,-195.35 1286.69,-253 216.86,354.2 -208.69,440.94 c 64.13,0 169.57,0 243.13,0 112.44,0 97.7,186.76 97.7,186.76" /><path
         id="path28"
         style="fill:#ffffff;fill-opacity:1;fill-rule:nonzero;stroke:none"
         d="m 2437.48,3927.65 -277.73,-191.71 v -23.36 l 272.82,163.45 c 0,0 301.69,28.27 501.33,23.35 189.4,-4.66 420.06,-70.95 420.06,-70.95 l 0.01,70.6 c 0,0 -433.53,99.89 -916.49,28.62" /><path
         id="path30"
         style="fill:#ffffff;fill-opacity:1;fill-rule:nonzero;stroke:none"
         d="M 6064.01,2986.29 H 4279.63 V 2846.2 h 1784.38 v 140.09" /><path
         id="path32"
         style="fill:#ffffff;fill-opacity:1;fill-rule:nonzero;stroke:none"
         d="m 1792.48,2521.73 c -21.13,0 -38.26,43.76 -38.26,97.74 0,53.97 17.13,97.73 38.26,97.73 21.13,0 38.26,-43.76 38.26,-97.73 0,-53.98 -17.13,-97.74 -38.26,-97.74 z m 3.85,206.75 c -25.94,0 -46.97,-48.81 -46.97,-109.01 0,-60.21 21.03,-109.02 46.97,-109.02 25.94,0 46.97,48.81 46.97,109.02 0,60.2 -21.03,109.01 -46.97,109.01" /><path
         id="path34"
         style="fill:#ffffff;fill-opacity:1;fill-rule:nonzero;stroke:none"
         d="m 1792.48,2620.22 c 0,-20.71 5.43,-37.49 12.14,-37.49 6.7,0 12.14,16.78 12.14,37.49 0,20.7 -5.44,37.48 -12.14,37.48 -6.71,0 -12.14,-16.78 -12.14,-37.48" /><path
         id="path36"
         style="fill:#ffffff;fill-opacity:1;fill-rule:nonzero;stroke:none"
         d="m 1942.97,2503.59 c -23.22,0 -42.04,48.08 -42.04,107.39 0,59.31 18.82,107.38 42.04,107.38 23.22,0 42.04,-48.07 42.04,-107.38 0,-59.31 -18.82,-107.39 -42.04,-107.39 z m 4.23,227.16 c -28.5,0 -51.61,-53.62 -51.61,-119.77 0,-66.15 23.11,-119.78 51.61,-119.78 28.5,0 51.6,53.63 51.6,119.78 0,66.15 -23.1,119.77 -51.6,119.77" /><path
         id="path38"
         style="fill:#ffffff;fill-opacity:1;fill-rule:nonzero;stroke:none"
         d="m 1942.97,2611.81 c 0,-22.75 5.97,-41.19 13.34,-41.19 7.37,0 13.34,18.44 13.34,41.19 0,22.74 -5.97,41.18 -13.34,41.18 -7.37,0 -13.34,-18.44 -13.34,-41.18" /><path
         id="path40"
         style="fill:#ffffff;fill-opacity:1;fill-rule:nonzero;stroke:none"
         d="m 2104.59,2474.3 c -26.5,0 -47.98,54.87 -47.98,122.55 0,67.68 21.48,122.54 47.98,122.54 26.49,0 47.97,-54.86 47.97,-122.54 0,-67.68 -21.48,-122.55 -47.97,-122.55 z m 4.82,259.23 c -32.52,0 -58.89,-61.2 -58.89,-136.68 0,-75.49 26.37,-136.69 58.89,-136.69 32.52,0 58.89,61.2 58.89,136.69 0,75.48 -26.37,136.68 -58.89,136.68" /><path
         id="path42"
         style="fill:#ffffff;fill-opacity:1;fill-rule:nonzero;stroke:none"
         d="m 2104.59,2597.79 c 0,-25.96 6.81,-47 15.22,-47 8.4,0 15.22,21.04 15.22,47 0,25.96 -6.82,47 -15.22,47 -8.41,0 -15.22,-21.04 -15.22,-47" /><path
         id="path44"
         style="fill:#ffffff;fill-opacity:1;fill-rule:nonzero;stroke:none"
         d="m 2291.43,2456.85 c -30.27,0 -54.82,62.68 -54.82,140 0,77.31 24.55,139.99 54.82,139.99 30.26,0 54.8,-62.68 54.8,-139.99 0,-77.32 -24.54,-140 -54.8,-140 z m 5.5,296.15 c -37.15,0 -67.27,-69.92 -67.27,-156.15 0,-86.24 30.12,-156.15 67.27,-156.15 37.16,0 67.28,69.91 67.28,156.15 0,86.23 -30.12,156.15 -67.28,156.15" /><path
         id="path46"
         style="fill:#ffffff;fill-opacity:1;fill-rule:nonzero;stroke:none"
         d="m 2291.43,2597.92 c 0,-29.65 7.78,-53.69 17.38,-53.69 9.61,0 17.39,24.04 17.39,53.69 0,29.66 -7.78,53.7 -17.39,53.7 -9.6,0 -17.38,-24.04 -17.38,-53.7" /><path
         id="path48"
         style="fill:#ffffff;fill-opacity:1;fill-rule:nonzero;stroke:none"
         d="m 2770.1,2515.22 c 13.19,0 23.88,33.03 23.88,73.76 0,40.74 -10.69,73.76 -23.88,73.76 -13.2,0 -23.89,-33.02 -23.89,-73.76 0,-40.73 10.69,-73.76 23.89,-73.76" /><path
         id="path50"
         style="fill:#ffffff;fill-opacity:1;fill-rule:nonzero;stroke:none"
         d="m 3033.73,2359.5 c -45.68,0 -82.72,94.61 -82.72,211.3 0,116.7 37.04,211.3 82.72,211.3 45.69,0 82.73,-94.6 82.73,-211.3 0,-116.69 -37.04,-211.3 -82.73,-211.3 z m 8.32,446.99 c -56.09,0 -101.55,-105.52 -101.55,-235.69 0,-130.16 45.46,-235.68 101.55,-235.68 56.08,0 101.54,105.52 101.54,235.68 0,130.17 -45.46,235.69 -101.54,235.69" /><path
         id="path52"
         style="fill:#ffffff;fill-opacity:1;fill-rule:nonzero;stroke:none"
         d="m 3033.73,2572.43 c 0,-44.76 11.75,-81.04 26.25,-81.04 14.49,0 26.24,36.28 26.24,81.04 0,44.76 -11.75,81.04 -26.24,81.04 -14.5,0 -26.25,-36.28 -26.25,-81.04" /><path
         id="path54"
         style="fill:#ffffff;fill-opacity:1;fill-rule:nonzero;stroke:none"
         d="m 3351.74,2301.87 c -52.13,0 -94.4,107.95 -94.4,241.13 0,133.17 42.27,241.12 94.4,241.12 52.14,0 94.4,-107.95 94.4,-241.12 0,-133.18 -42.26,-241.13 -94.4,-241.13 z m 9.49,510.08 c -64,0 -115.88,-120.42 -115.88,-268.95 0,-148.54 51.88,-268.96 115.88,-268.96 64,0 115.88,120.42 115.88,268.96 0,148.53 -51.88,268.95 -115.88,268.95" /><path
         id="path56"
         style="fill:#ffffff;fill-opacity:1;fill-rule:nonzero;stroke:none"
         d="m 3351.74,2544.85 c 0,-51.07 13.41,-92.48 29.95,-92.48 16.54,0 29.95,41.41 29.95,92.48 0,51.08 -13.41,92.48 -29.95,92.48 -16.54,0 -29.95,-41.4 -29.95,-92.48" /><path
         id="path58"
         style="fill:#ffffff;fill-opacity:1;fill-rule:nonzero;stroke:none"
         d="m 3749.3,2439.46 c 18.9,0 34.21,47.3 34.21,105.66 0,58.35 -15.31,105.65 -34.21,105.65 -18.9,0 -34.22,-47.3 -34.22,-105.65 0,-58.36 15.32,-105.66 34.22,-105.66" /><path
         id="path60"
         style="fill:#ffffff;fill-opacity:1;fill-rule:nonzero;stroke:none"
         d="m 2304.21,2403.51 c -45.02,0 -81.51,86.56 -81.51,193.34 0,106.77 36.49,193.33 81.51,193.33 45.01,0 81.51,-86.56 81.51,-193.33 0,-106.78 -36.5,-193.34 -81.51,-193.34 z m -83.02,1065.75 v 227.54 l 152.39,88.29 V 3534.58 Z M 2115.77,2427.61 c -39.4,0 -71.34,75.77 -71.34,169.24 0,93.46 31.94,169.22 71.34,169.22 39.41,0 71.35,-75.76 71.35,-169.22 0,-93.47 -31.94,-169.24 -71.35,-169.24 z m -128.46,347.18 116,5.88 c -29.09,-14.38 -52.59,-59.95 -62.62,-119.55 -10.73,77.13 -44.36,107 -53.38,113.67 z m -34.53,-312.11 c -34.53,0 -62.53,66.4 -62.53,148.3 0,81.9 28,148.29 62.53,148.29 34.53,0 62.52,-66.39 62.52,-148.29 0,-81.9 -27.99,-148.3 -62.52,-148.3 z m -118.06,304.39 107.99,5.46 c -29.83,-13.95 -53.16,-65.24 -58.97,-130.06 -5.24,82.16 -37.69,115.41 -49.02,124.6 z M 1801.4,2484.5 c -31.42,0 -56.9,60.42 -56.9,134.97 0,74.54 25.48,134.96 56.9,134.96 31.43,0 56.91,-60.42 56.91,-134.96 0,-74.55 -25.48,-134.97 -56.91,-134.97 z m 548.98,325.01 44.4,2.59 v 136.05 l 1226.15,57.81 -9.83,58.99 -1216.32,-87.4 v 14.75 l 1213.86,104.6 -14.75,122.89 -1199.11,-164.68 v 771.76 l -187.95,-114.24 -0.38,-0.05 v -399.39 l 136.4,45.88 -113.98,-45.88 h 61.76 v -435.14 l -112.45,-8.81 v -69.74 l 110.09,6.4 c -34.99,-18.71 -62.65,-76.94 -72.22,-151.56 -12.05,86.11 -49.12,120.52 -60.26,128.98 l 3.96,0.2 v 58.99 l -432.74,-34.84 v -46.06 l 62.08,3.15 c -29.82,-17.16 -51.82,-75.62 -51.82,-145.29 0,-83.15 31.28,-150.55 69.85,-150.55 h 32.52 c 0,0 36.4,26.2 43.55,118.36 5.35,-80.09 37.23,-141.71 75.87,-141.71 h 35.73 c 0,0 31.52,22.61 44.13,98.4 10.61,-78.48 44.18,-135.88 84.03,-135.88 h 40.77 c 0,0 40.37,29.08 52.65,128.62 12.08,-89.8 50.46,-155.5 96.03,-155.5 h 46.58 c 0,0 64.26,45.71 64.26,215.64 0,146.33 -57,200.43 -72.86,212.66" /><path
         id="path62"
         style="fill:#ffffff;fill-opacity:1;fill-rule:nonzero;stroke:none"
         d="m 5160.76,4256.57 c 16.52,0 29.92,18.15 29.92,40.55 0,22.4 -13.4,40.55 -29.92,40.55 -16.52,0 -29.92,-18.15 -29.92,-40.55 0,-22.4 13.4,-40.55 29.92,-40.55" /><path
         id="path64"
         style="fill:#ffffff;fill-opacity:1;fill-rule:nonzero;stroke:none"
         d="m 5492.57,4070.29 c 16.52,0 29.92,18.16 29.92,40.56 0,22.39 -13.4,40.55 -29.92,40.55 -16.53,0 -29.92,-18.16 -29.92,-40.55 0,-22.4 13.39,-40.56 29.92,-40.56" /><path
         id="path66"
         style="fill:#ffffff;fill-opacity:1;fill-rule:nonzero;stroke:none"
         d="m 4687.01,3731.03 c 16.53,0 29.93,18.16 29.93,40.56 0,22.4 -13.4,40.55 -29.93,40.55 -16.52,0 -29.92,-18.15 -29.92,-40.55 0,-22.4 13.4,-40.56 29.92,-40.56" /><path
         id="path68"
         style="fill:#ffffff;fill-opacity:1;fill-rule:nonzero;stroke:none"
         d="m 4831.05,4084.23 c 16.52,0 29.92,18.15 29.92,40.55 0,22.4 -13.4,40.55 -29.92,40.55 -16.53,0 -29.93,-18.15 -29.93,-40.55 0,-22.4 13.4,-40.55 29.93,-40.55" /><path
         id="path70"
         style="fill:#ffffff;fill-opacity:1;fill-rule:nonzero;stroke:none"
         d="m 4998.28,6179.92 c -11.86,35.27 -31.31,73.67 -62.14,107.68 -6.07,6.72 -12.88,13.12 -19.78,19.47 1.87,-5.17 4.13,-10.43 5.75,-15.52 14.14,-42.8 18.35,-82.43 19.3,-116.22 0.01,-0.15 0.01,-0.3 0.01,-0.45 0.12,-4.42 0.39,-9.11 0.41,-13.31 -0.2,-9.14 -0.38,-17.78 -0.56,-25.93 -0.46,-8.11 -1.77,-15.67 -2.51,-22.72 -0.88,-7.95 -1.82,-15.02 -2.88,-21.54 -0.25,-1.51 -0.65,-3.03 -0.92,-4.54 -0.62,-3.23 -1.16,-6.68 -1.93,-9.47 -4.32,-19.09 -6.63,-29.27 -6.63,-29.27 0,0 -3.21,-9.93 -9.23,-28.54 -0.76,-2.78 -2.05,-5.99 -3.15,-9.05 -0.56,-1.47 -0.99,-3.02 -1.56,-4.49 -2.41,-6.14 -5.21,-12.69 -8.51,-19.96 -2.96,-6.44 -5.69,-13.61 -9.44,-20.83 -4,-7.09 -8.25,-14.62 -12.75,-22.58 -2.14,-3.57 -4.74,-7.43 -7.08,-11.13 -0.12,-0.2 -0.24,-0.39 -0.37,-0.59 -18.05,-28.55 -41.88,-60.43 -75.84,-90 -26.86,-23.87 -59.67,-46.35 -97.38,-65.04 34.67,-0.63 68.16,4.04 98.33,13.35 43.88,13.52 80.18,36.65 108.39,60.92 28.57,24.23 47.98,51.04 62.01,73.8 6.97,11.51 12.78,22 16.71,31.7 4.44,9.46 8.05,17.58 10.05,24.54 4.61,13.66 7.07,20.95 7.07,20.95 0,0 1.61,7.53 4.62,21.63 1.82,7 2.86,15.83 3.87,26.23 1.57,10.36 1.93,22.35 1.81,35.8 -0.45,26.73 -3.46,59.69 -15.67,95.11" /><path
         id="path72"
         style="fill:#ffffff;fill-opacity:1;fill-rule:nonzero;stroke:none"
         d="m 4938.05,6113 c 0.66,7.05 1.89,14.6 2.26,22.7 0.09,8.12 0.18,16.75 0.28,25.87 -0.54,36.29 -4.54,81.03 -21.02,129.16 -16,47.95 -42.39,100.07 -84,146.56 -41.39,46.24 -97.38,87.03 -162.93,112.66 -66.5,25.41 -142.58,34.82 -218.35,22.44 -6.67,-1.04 -13.27,-2.53 -19.88,-3.97 4.85,-11.01 9.17,-21.94 12.55,-32.61 12.01,-36.6 14.6,-70.45 14.66,-97.82 -0.07,-13.77 -0.62,-26.02 -2.38,-36.59 -1.19,-10.62 -2.38,-19.61 -4.35,-26.73 -3.28,-14.34 -5.02,-21.99 -5.02,-21.99 0,0 -2.41,-7.47 -6.91,-21.48 -1.93,-7.12 -5.49,-15.46 -9.89,-25.2 -1.84,-4.73 -4.17,-9.67 -6.78,-14.8 -0.26,0.21 -0.49,0.42 -0.75,0.62 2.63,5 5,9.84 6.87,14.46 4.53,9.64 8.21,17.93 10.25,25.02 4.7,13.94 7.21,21.38 7.21,21.38 0,0 1.63,7.67 4.7,22.05 1.87,7.14 2.93,16.14 3.96,26.75 1.6,10.56 1.97,22.79 1.85,36.51 -0.46,27.26 -3.52,60.87 -15.97,97 -12.09,35.98 -31.92,75.13 -63.36,109.84 -31.18,34.54 -73.38,64.93 -122.42,83.84 -50,18.84 -106.83,25.55 -163.39,16.04 -56.47,-9.68 -111.47,-35.67 -156.51,-74.85 -15.01,-13.35 -28.5,-28.39 -40.75,-44.44 26.82,-16.21 49.48,-35.99 67.45,-57.49 24.55,-30.1 40.78,-62.24 50.18,-92.12 9.76,-29.89 11.82,-57.52 11.84,-79.85 -0.08,-11.24 -0.55,-21.23 -1.99,-29.85 -0.98,-8.66 -1.97,-15.99 -3.59,-21.79 -2.69,-11.7 -4.12,-17.94 -4.12,-17.94 0,0 -1.95,-6.09 -5.61,-17.52 -0.25,-0.94 -0.73,-2.08 -1.06,-3.07 16.96,11.94 34.73,22.49 53.4,30.85 28.05,11.57 56.9,20.34 86.12,23.92 21.59,2.84 43.16,3.32 64.23,1.78 -15.08,-0.38 -30.26,-1.77 -45.43,-4.32 -58.43,-10.06 -115.32,-36.98 -161.92,-77.52 -23.08,-20.54 -42.94,-44.7 -59.78,-70.88 -16.36,-26.73 -27.85,-54.86 -37.01,-85.63 -7.76,-30.24 -12.37,-61.33 -11.91,-92.53 1.12,-31.11 5.87,-62.03 15.24,-91.48 19.4,-58.63 54.49,-110.89 99.68,-149.34 22.76,-18.66 47.39,-35.51 73.37,-46.68 12.38,-6.59 26.67,-10.7 40.07,-15.58 12.95,-3.91 26.89,-7.12 40.21,-9.8 54.16,-9.19 107.43,-4.38 153.58,9.85 26.4,8.13 50.1,19.61 71.2,32.67 2.55,-0.89 5.12,-1.79 7.64,-2.69 16.91,-5.01 34.8,-9.02 52.04,-12.4 69.96,-11.49 138.57,-4.91 197.88,13.72 59.51,18.75 108.78,50.14 147.02,83.2 38.74,32.98 65.01,69.42 83.99,100.35 4.57,7.89 8.89,15.36 12.96,22.39 3.82,7.16 6.61,14.27 9.64,20.67 5.99,12.85 10.87,23.88 13.56,33.32 6.23,18.55 9.54,28.44 9.54,28.44 0,0 2.2,10.2 6.31,29.33 2.51,9.49 3.94,21.46 5.34,35.57" /><path
         id="path74"
         style="fill:#ffffff;fill-opacity:1;fill-rule:nonzero;stroke:none"
         d="m 4024.75,6366.19 c 1.29,8.61 1.57,18.59 1.45,29.77 -0.41,22.22 -2.95,49.61 -13.14,79.03 -9.9,29.29 -26.08,61.2 -51.82,89.32 -25.49,28 -59.98,52.59 -99.79,67.74 -40.77,15.16 -86.86,20.37 -132.67,12.46 -45.73,-8.07 -90.14,-29.28 -126.54,-60.99 -14.05,-12.54 -26.11,-27.14 -37.16,-42.52 52.78,-24.79 96.57,-59.27 129.3,-97.96 35.04,-42.23 58.01,-87.72 71.43,-129.92 1.2,-3.64 1.9,-7.11 2.94,-10.71 23.26,1.99 47.32,1.96 71.91,-1.28 13.59,-2.23 27.02,-4.73 41.06,-8.44 13.22,-4.27 26.64,-7.54 40.06,-13.89 13.04,-5.05 25.51,-11.36 37.63,-18.48 8.67,9.56 17.73,18.72 27.45,27.11 7.66,6.35 15.61,12.28 23.69,17.99 0.4,1.15 0.97,2.46 1.29,3.54 3.85,11.36 5.91,17.42 5.91,17.42 0,0 1.32,6.26 3.8,18 1.52,5.82 2.37,13.16 3.2,21.81" /><path
         id="path76"
         style="fill:#ffffff;fill-opacity:1;fill-rule:nonzero;stroke:none"
         d="m 3934.49,5862.68 c -17.61,24.8 -31.19,52.67 -41.67,81.89 -9.87,29.5 -15.17,60.61 -16.73,92.07 -0.94,31.55 3.22,63.13 10.69,93.91 8.92,29.52 21.83,59.71 38.7,86.24 7.28,10.98 15.22,21.48 23.57,31.59 -10.58,6.61 -21.4,12.6 -32.54,17.38 -11.98,6.36 -25.76,10.33 -38.71,15.03 -12.53,3.78 -25.98,6.86 -38.85,9.44 -52.33,8.85 -103.78,4.18 -148.34,-9.59 -44.75,-13.82 -81.77,-37.41 -110.54,-62.16 -25.62,-21.74 -43.92,-45.45 -57.7,-66.65 -0.48,0.11 -0.95,0.24 -1.43,0.36 13.57,21.58 31.71,45.86 57.38,68.28 28.61,25.55 65.84,49.24 110.56,65.34 23.82,8.33 49.93,13.92 77.27,16.47 -1.03,3.37 -1.71,6.61 -2.88,10.02 -13.93,41.61 -36.86,86.87 -73.07,127.12 -35.99,40.04 -84.68,75.33 -141.49,97.4 -57.76,21.93 -123.65,29.92 -189.25,19.05 -65.53,-11.02 -129.44,-41.05 -181.76,-86.51 -25.93,-23.01 -48.26,-50.1 -67.19,-79.46 -18.48,-30.23 -31.24,-61.1 -41.85,-96.69 -0.08,-0.33 -0.14,-0.67 -0.23,-0.99 38.19,-1.99 74.96,-10.55 107.44,-24.22 49.55,-21.22 89.67,-52.88 119.38,-88.2 10.31,-12.52 19.31,-25.37 27.23,-38.31 -1.27,-0.46 -2.59,-0.86 -3.85,-1.33 -7.98,12.32 -17.06,24.44 -27.56,36.02 -30.29,33.51 -71.27,62.99 -118.86,81.3 -48.53,18.26 -103.67,24.73 -158.53,15.48 -54.78,-9.43 -108.11,-34.67 -151.78,-72.66 -21.64,-19.26 -40.26,-41.91 -56.04,-66.45 -15.34,-25.05 -26.11,-51.42 -34.7,-80.26 -7.23,-28.2 -11.53,-57.18 -11.15,-86.26 8.23,1.98 16.47,3.98 24.78,4.95 42.2,5.3 84.19,-1.44 119.56,-15.82 -33.98,9.94 -71.04,12.62 -107.9,6.15 -42.45,-7.59 -83.61,-27.48 -117.08,-57.12 -16.54,-15.08 -30.87,-32.54 -43.14,-51.42 -11.97,-19.63 -19.97,-38.78 -27.11,-62.54 -5.17,-20.65 -8.75,-44.07 -8.28,-66.36 0.95,-22.49 4.28,-44.83 10.82,-66.24 5.1,-15.86 12.26,-30.8 20.34,-45.15 4.5,2.41 8.86,5.12 13.51,7.14 17.98,7.17 36.41,12.52 55.01,14.57 37,4.44 73.83,-2.04 104.11,-15.24 5.06,-2.24 9.67,-4.89 14.39,-7.44 -4.8,2.27 -9.58,4.58 -14.62,6.44 -28.75,10.37 -60.83,13.61 -92.66,7.81 -31.75,-5.94 -62.38,-21.01 -87.29,-43.21 -12.27,-11.32 -22.93,-24.36 -32.07,-38.43 -8.92,-14.74 -14.73,-28.65 -20.18,-46.79 -3.8,-15.13 -6.55,-32.77 -6.21,-49.33 0.71,-16.76 3.13,-33.43 7.93,-49.43 10.1,-31.8 28.71,-60.45 53.02,-81.74 12.23,-10.32 25.65,-19.76 39.61,-25.99 6.59,-3.66 14.59,-6.1 21.98,-8.89 6.89,-2.19 14.64,-4.09 21.88,-5.65 29.65,-5.45 59.02,-3.22 84.62,4.31 25.7,7.52 47.09,20.81 63.8,34.84 16.99,13.94 28.35,29.75 36.56,43.11 8.24,13.45 12.92,25.05 15.67,33.01 2.7,8.02 4.15,12.3 4.15,12.3 l 0.01,0.08 c 8.29,-4.57 16.78,-8.84 25.84,-12.24 34.02,-12.47 72.25,-16.57 110.21,-9.85 37.88,6.85 74.56,24.65 104.4,51.11 14.72,13.47 27.49,29.05 38.43,45.88 10.68,17.53 17.77,34.51 24.17,55.81 4.6,18.34 7.81,39.27 7.39,59.13 -0.84,20.05 -3.8,39.98 -9.6,59.08 -12.17,37.99 -34.59,72.07 -63.71,97.28 -14.65,12.22 -30.65,23.36 -47.38,30.72 -7.92,4.33 -17.36,7.14 -26.13,10.41 -4.64,1.45 -9.56,2.74 -14.51,3.95 -0.91,3.02 -1.6,5.97 -2.7,9.04 -0.39,1.15 -0.96,2.35 -1.38,3.5 7.38,-1.23 14.74,-2.6 22.52,-4.59 3.76,-1.18 7.55,-2.28 11.35,-3.44 19.5,-7.4 37.2,-12.75 54.36,-25.54 17.09,-13 32.06,-29.13 45.5,-46.77 13.02,-18.03 23.13,-38.33 30.97,-59.67 14.39,-41.2 15.87,-86.05 5.63,-130.02 25.6,-19.33 54.28,-36.27 86.02,-48.55 55.29,-20.91 118.26,-28.45 180.93,-17.99 62.59,10.62 123.6,39.36 173.55,82.79 24.75,21.99 46.06,47.87 64.12,75.91 17.65,28.9 29.76,58.26 39.94,92.38 7.91,31.19 13.11,65.41 12.5,98.58 -1.22,33.34 -6.34,66.47 -16.41,98.02 -20.8,62.83 -58.52,118.76 -106.98,159.82 -9.57,7.81 -19.52,15.15 -29.66,22.11 14.11,-8.35 27.76,-17.75 41.09,-27.89 25.7,-19.91 48.1,-44.54 68.17,-71.36 19.41,-27.41 34.4,-58.18 45.93,-90.45 10.88,-32.56 16.71,-66.92 18.4,-101.63 0.94,-35.09 -3.42,-69.07 -12.04,-104.23 -3.77,-12.49 -8.53,-25.38 -13.81,-38.22 18.09,-0.17 36.38,1.03 54.64,4.11 56.48,9.67 111.48,35.67 156.52,74.84 10.96,9.76 21.16,20.38 30.65,31.64 -9.44,6.01 -18.73,12.37 -27.81,19.25 -23.29,17.98 -43.62,40.25 -61.84,64.51" /></g></g></svg>